<svg width="488" height="532" viewBox="0 0 488 532" fill="none" xmlns="http://www.w3.org/2000/svg">
<g filter="url(#filter0_d)">
<rect width="446.882" height="491.665" rx="8" transform="translate(20.7529 13)" fill="#009CDE"/>
<rect width="446.882" height="491.665" rx="8" transform="translate(20.7529 13)" fill="url(#paint0_linear)"/>
</g>
<mask id="mask0" mask-type="alpha" maskUnits="userSpaceOnUse" x="20" y="14" width="447" height="492">
<path d="M0 8C0 3.58172 3.58172 0 8 0H438.882C443.3 0 446.882 3.58172 446.882 8V483.665C446.882 488.084 443.3 491.665 438.882 491.665H8.00001C3.58173 491.665 0 488.084 0 483.665V8Z" transform="translate(20.1179 14)" fill="#009CDE"/>
</mask>
<g mask="url(#mask0)">
<ellipse cx="178.29" cy="193.205" rx="178.29" ry="193.205" transform="translate(-97.1221 136.071)" fill="white" fill-opacity="0.07"/>
<ellipse cx="255.567" cy="271.231" rx="255.567" ry="271.231" transform="translate(-169.124 58.0454)" fill="white" fill-opacity="0.07"/>
</g>
<defs>
<filter id="filter0_d" x="0.75293" y="0" width="486.882" height="531.665" filterUnits="userSpaceOnUse" color-interpolation-filters="sRGB">
<feFlood flood-opacity="0" result="BackgroundImageFix"/>
<feColorMatrix in="SourceAlpha" type="matrix" values="0 0 0 0 0 0 0 0 0 0 0 0 0 0 0 0 0 0 255 0"/>
<feOffset dy="7"/>
<feGaussianBlur stdDeviation="10"/>
<feColorMatrix type="matrix" values="0 0 0 0 0 0 0 0 0 0 0 0 0 0 0 0 0 0 0.25 0"/>
<feBlend mode="normal" in2="BackgroundImageFix" result="effect1_dropShadow"/>
<feBlend mode="normal" in="SourceGraphic" in2="effect1_dropShadow" result="shape"/>
</filter>
<linearGradient id="paint0_linear" x2="1" gradientUnits="userSpaceOnUse" gradientTransform="matrix(-441.167 492.117 -447.293 -1269.41 664.814 634.252)">
<stop stop-color="#2F80ED"/>
<stop offset="1" stop-color="#BB6BD9"/>
</linearGradient>
</defs>
</svg>

