<?xml version="1.0" encoding="iso-8859-1"?>
<!-- Generator: Adobe Illustrator 19.2.0, SVG Export Plug-In . SVG Version: 6.00 Build 0)  -->
<svg version="1.1" xmlns="http://www.w3.org/2000/svg" xmlns:xlink="http://www.w3.org/1999/xlink" x="0px" y="0px"
	 viewBox="0 0 72.274 79.752" style="enable-background:new 0 0 72.274 79.752;" xml:space="preserve">
<g id="Sunstar_x5F_Foods">
	<path style="fill-rule:evenodd;clip-rule:evenodd;" d="M30.222,8.939c-1.032,1.907-1.191,3.958-0.551,5.854
		c0.997,2.956,3.279,5.865,4.003,9.106c0.691,3.098-0.538,5.966-2.102,7.705c-1.354,1.508-3.225,2.62-5.604,2.803
		c-3.031,0.233-5.347-1.015-6.955-2.702c-0.605-0.635-1.036-1.294-1.351-2.302c0.111-0.661,0.767-0.947,1.351-1.301
		c0.466-0.282,1.188-0.885,1.751-0.851c0.534,0.032,0.707,0.557,1.001,0.9c0.332,0.389,0.682,0.573,0.951,0.9
		c0.538,0.252,0.985,0.662,1.551,0.801c2.045,0.505,3.861-0.705,4.604-1.951c1.12-2.673-0.624-5.221-2.052-7.105
		c-1.731-2.284-2.901-4.35-2.902-8.156c0-2.875,0.496-4.78,1.651-6.654c1.867-3.028,5.272-5.648,9.707-5.954
		c5.675-0.392,9.746,2.759,11.759,6.454c0.704,1.293,1.33,2.958,1.451,4.604c0.274,3.722-0.572,6.99-1.602,9.707
		c-0.239,0.632-0.616,2.269-1.301,2.452c-0.644,0.172-1.589-0.719-2.251-1.101c-0.559-0.322-1.85-0.769-1.952-1.451
		c-0.088-0.587,0.56-1.697,0.751-2.302c0.669-2.112,1.365-5.224,0.65-7.906c-0.704-2.642-3.221-4.98-6.604-4.953
		C33.381,5.558,31.593,7.037,30.222,8.939z"/>
	<path style="fill-rule:evenodd;clip-rule:evenodd;" d="M58.993,13.493c3.454-0.308,6.285,1.091,8.256,2.651
		c2.104,1.666,3.556,3.776,4.304,6.604c0.835,3.161,0.315,6.652-1.001,9.007c-2.584,4.621-6.682,6.58-12.76,7.706
		c-0.741,0.138-2.221,0.52-2.651,0.1c-0.395-0.384-0.2-1.823-0.2-2.501c0-1.128-0.196-1.94,0.149-2.402
		c0.222-0.295,0.953-0.319,1.451-0.4c1.512-0.244,3.154-0.723,4.254-1.15c1.644-0.641,3.44-1.545,4.354-2.902
		c1.169-1.739,1.752-4.467,0.85-6.805c-0.229-0.595-0.494-1.267-0.801-1.752c-0.701-1.107-2.339-2.127-3.752-2.451
		c-2.561-0.589-5.027,0.421-6.355,1.65c-1.183,1.097-2.006,2.717-3.002,4.204c-1.887,2.816-4.007,6.149-8.155,6.554
		c-3.101,0.304-5.805-1.034-7.356-2.601c-1.221-1.233-2.586-3.809-2.401-6.454c0.062-0.886,0.294-1.804,0.65-2.652
		c0.186-0.441,0.735-1.82,1.401-1.901c0.558-0.067,1.141,0.488,1.701,0.801c0.424,0.236,1.331,0.51,1.451,1.051
		c0.172,0.777-0.384,1.17-0.551,1.801c-0.82,3.096,1.753,6.231,4.903,5.404c1.93-0.507,3.06-2.656,3.804-4.354
		c1.385-3.164,3.151-5.945,6.104-7.605C55.227,14.201,56.934,13.676,58.993,13.493z"/>
	<path style="fill-rule:evenodd;clip-rule:evenodd;" d="M12.259,13.793c-0.007,0,0.019-0.049,0.05-0.05
		c2.506-0.119,4.998,0.866,6.705,1.901c2.335,1.415,4.154,3.143,5.904,5.304c0.285,0.352,1.54,1.597,1.501,2.202
		c-0.043,0.685-1.347,1.143-1.851,1.45c-0.644,0.393-1.347,1.221-2.101,1.201c-0.501-0.014-1.024-0.847-1.352-1.251
		c-1.134-1.401-2.599-2.769-4.053-3.703c-1.016-0.651-2.122-1.222-3.703-1.451c-1.52-0.219-3.07,0.139-4.203,0.751
		c-2.647,1.434-4.576,4.866-3.152,8.557c0.606,1.572,1.608,2.522,2.803,3.303c1.312,0.856,2.863,1.091,4.854,1.251
		c3.829,0.306,7.656,0.138,10.058,2.1c0.752,0.616,1.492,1.616,2.051,2.552c1.263,2.114,1.735,5.443,0.45,8.106
		c-1.265,2.621-3.216,4.528-6.755,4.954c-0.524,0.062-1.333,0.168-1.751-0.2c-0.374-0.33-0.346-0.989-0.351-1.752
		c-0.004-0.638-0.122-1.541,0.2-1.951c0.33-0.42,1.175-0.351,1.901-0.55c2.247-0.615,4.333-3.542,2.702-6.155
		c-0.835-1.337-2.389-2.04-4.503-2.051c-1.768-0.01-3.794,0.409-5.605,0.35c-1.759-0.059-3.482-0.393-4.953-1.101
		c-3.379-1.628-6.288-5.011-6.955-9.457c-0.803-5.347,1.734-9.335,4.703-11.658C6.659,15.031,8.962,13.95,12.259,13.793z"/>
	<path style="fill-rule:evenodd;clip-rule:evenodd;" d="M51.687,33.607c-0.908,0.776-1.815,1.656-1.901,3.202
		c-0.109,1.956,1.095,3.532,2.752,4.054c1.324,0.415,2.735,0.332,4.054,0.199c1.337-0.135,2.71-0.269,4.152-0.199
		c2.867,0.137,4.605,1.047,6.505,2.401c1.599,1.14,3.062,3.005,3.953,4.953c0.912,1.994,1.379,4.75,0.851,7.606
		c-0.408,2.206-1.627,4.373-3.002,5.904c-1.357,1.511-3.254,2.916-5.305,3.552c-2.484,0.771-5.231,0.757-7.605-0.1
		c-2.185-0.787-3.705-1.922-5.505-3.353c-1.267-1.229-2.473-2.446-3.702-3.902c-0.31-0.367-0.973-1.081-0.951-1.552
		c0.034-0.716,1.302-1.134,1.901-1.501c0.399-0.243,1.506-1.25,2.202-1.2c0.438,0.03,0.809,0.602,1.051,0.9
		c0.325,0.401,0.479,0.706,0.9,1.051c0.564,0.736,1.266,1.336,1.951,1.951c2.038,1.775,5.416,3.558,8.957,2.001
		c1.941-0.854,3.361-2.739,3.753-5.104c0.622-3.765-1.712-6.916-4.603-7.806c-1.44-0.442-3.191-0.366-4.954-0.45
		c-1.657-0.079-3.374-0.244-4.853-0.551c-3.606-0.746-5.649-3.27-6.755-6.555c-0.747-6.085,2.62-9.983,7.706-10.607
		c0.538-0.066,1.378-0.126,1.701,0.3c0.383,0.506,0.358,3.17-0.05,3.653c-0.386,0.456-1.158,0.345-1.702,0.5
		C52.637,33.115,52.2,33.407,51.687,33.607z"/>
	<path style="fill-rule:evenodd;clip-rule:evenodd;" d="M16.561,59.377c2.398-1.904,3.868-5.263,5.905-7.756
		c1.215-1.488,2.495-2.876,4.553-3.453c4.797-1.345,8.641,1.362,10.258,4.453c1.333,2.554,1.1,7.541-1.101,8.957
		c-0.805-0.144-1.096-0.512-1.701-0.851c-0.473-0.265-1.346-0.542-1.451-1.101c-0.118-0.62,0.325-1.136,0.45-1.651
		c0.569-2.354-0.403-4.535-2.102-5.304c-1.192-0.54-2.61-0.332-3.503,0.149c-2.228,1.203-2.838,3.608-3.803,5.854
		c-1.123,2.618-3.199,4.768-5.654,6.055c-2.669,1.398-6.032,1.934-9.557,0.851c-2.761-0.849-5.127-2.818-6.604-5.104
		C0.733,58.13-0.242,54.849,0.5,51.02c0.684-3.525,2.816-6.242,5.554-7.956c2.807-1.756,6.178-2.68,10.258-3.253
		c0.359-0.05,0.781-0.062,1.001,0.15c0.356,0.345,0.269,1.801,0.25,2.352c-0.031,0.894,0.158,1.946-0.149,2.452
		c-0.323,0.53-2.322,0.654-3.153,0.851c-3.18,0.75-5.876,1.896-7.455,4.403c-0.589,0.937-0.906,1.833-1.001,2.902
		c-0.323,3.673,2.037,6.588,5.054,7.405C12.895,60.88,14.902,60.364,16.561,59.377z"/>
	<path style="fill-rule:evenodd;clip-rule:evenodd;" d="M53.739,51.621c-0.633,0.227-1.061,0.896-1.751,0.851
		c-0.83-0.056-1.021-1.18-1.651-1.602c-0.969-1.096-3.185-1.422-4.754-0.7c-1.418,0.652-2.47,2.084-2.151,4.152
		c0.407,2.646,2.514,4.5,3.703,6.556c1.192,2.06,2.175,4.904,1.601,8.306c-0.94,5.571-4.692,9.401-10.107,10.357
		c-6.587,1.163-11.309-2.683-13.31-6.755c-1.044-2.125-1.44-5.349-0.95-8.857c0.278-1.99,0.988-4.157,1.701-5.954
		c0.259-0.654,0.564-1.48,1-1.552c0.606-0.098,1.834,0.82,2.302,1.101c0.698,0.418,1.792,0.743,1.901,1.451
		c0.056,0.36-0.279,0.95-0.45,1.4c-0.505,1.331-0.897,2.882-1.101,4.403c-0.331,2.476-0.042,4.63,0.9,6.154
		c1.114,1.803,3.612,3.833,7.056,3.203c3.273-0.6,6.397-3.676,5.554-8.156c-0.283-1.506-1.135-3.092-1.852-4.403
		c-0.746-1.367-1.428-2.839-1.951-4.253c-1.351-3.651-0.302-7.315,1.751-9.407c1.326-1.351,3.531-2.634,6.055-2.651
		c2.978-0.021,5.138,1.295,6.705,3.052c0.458,0.514,1.197,1.327,1.15,2.052C55.044,51.09,54.269,51.216,53.739,51.621z"/>
</g>
<g id="Layer_1">
</g>
</svg>
